<?xml version="1.0" encoding="UTF-8" standalone="no"?><!DOCTYPE svg PUBLIC "-//W3C//DTD SVG 1.1//EN" "http://www.w3.org/Graphics/SVG/1.1/DTD/svg11.dtd"><svg width="100%" height="100%" viewBox="0 0 2250 2250" version="1.1" xmlns="http://www.w3.org/2000/svg" xmlns:xlink="http://www.w3.org/1999/xlink" xml:space="preserve" xmlns:serif="http://www.serif.com/" style="fill-rule:evenodd;clip-rule:evenodd;stroke-linejoin:round;stroke-miterlimit:2;"><path d="M385.217,358.324c-3.573,44.879 -15.255,89.435 -19.538,134.446c-6.25,65.792 0.344,135.258 9.752,200.238c6.127,42.299 14.924,85.104 27.933,125.865c5.73,17.952 21.901,43.943 17.57,62.932c-4.9,20.321 -20.164,41.18 -29.258,60.071c-13.035,27.081 -22.012,57.211 -29.675,85.817c-8.25,30.221 -14.36,60.609 -18.914,91.537c-2.025,13.742 -0.778,33.18 -7.409,45.769c-9.325,17.164 -33.417,12.518 -37.857,-5.721c-4.488,-17.698 3.908,-42.316 6.523,-60.071c8.224,-55.801 22.795,-110.667 43.686,-163.052c7.723,-19.363 24.143,-42.276 26.589,-62.932c1.493,-12.624 -7.512,-28.182 -11.302,-40.048c-7.755,-24.277 -13.645,-49.407 -18.717,-74.374c-22.315,-108.607 -29.401,-218.947 -14.105,-328.964c3.232,-25.745 8.616,-51.489 14.674,-77.234c2.861,-10.47 4.323,-24.55 11.443,-33.086c8.498,-9.823 22.884,-6.247 34.326,-3.758c28.606,6.51 57.211,13.959 85.817,22.624c91.537,29.146 178.51,83.202 251.728,144.629c25.745,21.652 62.792,47.442 77.235,78.411c136.617,-45.769 277.125,-62.028 420.501,-48.143c48.63,4.748 98.395,13.859 145.888,26.906c15.605,4.288 47.54,20.739 62.933,14.909c14.297,-5.114 26.557,-23.204 37.187,-33.708c19.695,-19.461 41.252,-37.162 62.932,-54.354c67.892,-53.829 146.412,-100.128 228.844,-127.781c28.111,-9.405 56.616,-17.349 85.817,-22.624c10.332,-1.865 24.028,-6.25 33.199,0.921c12.269,9.595 14.658,32.265 17.687,46.496c8.679,40.754 14.906,81.451 17.767,123.004c6.654,87.306 -0,174.493 -16.603,260.31c-5.492,28.01 -13.539,55.546 -21.417,82.956c-3.441,11.971 -11.628,27.538 -10.61,40.047c1.056,11.86 9.969,23.629 14.303,34.327c9.792,21.251 18.751,43.506 25.333,65.793c14.715,51.49 28.789,103.698 31.775,157.33c0.838,15.041 9.228,41.02 -6.602,50.978c-11.937,7.509 -34.098,3.373 -47.645,3.373c-38.452,-0 -82.109,-5.721 -120.143,0.423c-18.053,3.001 -25.745,31.043 -42.911,39.624c-16.503,8.582 -40.595,8.582 -57.209,0.501c-58.575,-27.899 -40.047,-120.12 25.745,-122.189c16.308,-0.514 32.834,5.959 44.511,17.187c7.789,7.492 13.43,20.453 24.143,23.496c10.664,2.866 23.65,0.91 34.326,0.91c35.251,-0 70.905,-6.485 105.841,-0c-0.687,-33.225 -9.189,-67.873 -17.164,-100.119c-2.918,-13.705 -4.946,-30.84 -13.453,-42.422c-8.438,-11.488 -21.823,-19.793 -32.316,-29.092c-27.395,-25.053 -55.371,-49.27 -82.956,-73.9c-12.555,-11.21 -31.603,-22.604 -39.535,-37.662c-10.35,-19.903 -0.512,-52.777 -0.512,-74.374c-0,-58.172 -2.861,-116.19 -2.861,-174.494c-24.017,4.394 -48.681,-2.86 -64.196,-22.884c-24.481,-31.466 -13.039,-82.544 24.148,-98.595c19.512,-8.47 45.686,-5.824 62.89,6.485c9.786,7 16.562,19.432 28.648,22.547c11.442,2.938 25.45,0.91 37.187,0.91l77.235,-0c0,-38.272 -5.855,-76.789 -12.655,-114.423c-2.022,-11.187 -3.204,-33.019 -12.312,-40.923c-7.512,-6.519 -21.311,0.226 -29.383,2.532c-26.169,7.466 -51.982,16.245 -77.235,26.377c-75.167,30.162 -143.88,75.047 -205.96,126.668c-21.729,18.067 -43.048,36.956 -62.932,56.98c-9.214,9.328 -18.554,24.008 -31.509,28.605c-15.281,4.783 -37.144,-7.852 -51.447,-12.243c-37.187,-10.641 -76.062,-24.672 -114.422,-27.805l-0,140.167c-0,18.133 5.097,45.769 -2.123,62.435c-5.36,12.529 -22.055,21.84 -32.204,30.287c-25.745,21.701 -61.098,41.819 -82.046,67.727c-11.508,14.231 -6.631,39.79 -6.631,56.953l0,128.725c0,15.65 -4.457,40.048 3.37,53.862c7.515,13.521 25.092,23.373 36.678,32.742c28.605,24.208 58.747,47.842 85.816,73.587l0,-220.262c-39.001,-7.546 -54.35,-55.301 -37.187,-88.675c14.24,-28.25 48.049,-39.807 77.235,-29.724c10.464,3.977 20.024,10.233 27.633,18.545c19.984,22.727 20.167,58.968 0.973,82.193c-9.349,11.94 -26.95,15.444 -28.606,32.006c-3.873,44.982 0,92.087 0,137.264c0,30.35 -4.354,64.394 0,94.398c2.783,14.761 18.431,20.802 23.623,34.33c7.646,20.021 2.122,50.351 2.122,71.511c-0.014,34.638 -1.754,68.653 -0.297,102.979c0.297,11.443 -2.564,24.77 -14.163,29.298c-26.709,10.147 -25.588,-25.055 -25.588,-40.74l0,-102.98c0,-13.619 3.65,-33.54 -4.585,-45.279c-6.857,-9.071 -18.299,-16.283 -26.881,-23.374c-18.985,-16.628 -38.034,-32.831 -57.211,-48.629c-61.113,-51.313 -121.891,-102.777 -183.075,-153.764l-60.072,-50.52c-10.607,-8.827 -24.566,-17.666 -30.954,-30.282c-6.233,-11.442 -3.372,-27.481 -3.372,-40.047l-0,-80.096c-36.553,-7.374 -52.52,-53.529 -38.523,-85.816c12.643,-29.163 48.563,-44.45 78.57,-34.015c35.863,12.469 53.993,57.66 35.591,91.226c-7.591,14.302 -25.044,20.779 -31.045,34.624c-7.581,17.489 -4.546,41.223 -4.546,59.774c0,9.125 -1.378,20.024 0.91,28.605c4.045,15.702 24.415,26.435 36.278,36.075c33.485,27.212 64.977,59.316 100.119,84.069c-5.721,-18.834 -2.861,-40.048 -2.861,-60.072l0,-463.409c-75.853,-0 -149.624,11.442 -223.123,29.675c-22.069,5.59 -44.155,11.883 -65.792,18.954c-10.067,3.29 -23.426,9.657 -34.327,5.87c-12.112,-4.403 -22.884,-19.741 -31.466,-28.754c-22.201,-22.227 -44.33,-44.099 -68.653,-64.037c-68.654,-56.027 -144.761,-103.128 -228.845,-131.434c-25.782,-8.675 -52.82,-19.703 -80.095,-21.931Zm563.529,420.581c-25.937,15.092 -1.322,57.217 25.433,42.313c27.258,-15.184 2.234,-57.96 -25.433,-42.313Zm740.883,362.257c-31.521,6.674 -20.636,53.779 11.428,45.809c28.619,-7.126 16.728,-51.507 -11.428,-45.809Zm157.33,-219.31c-6.276,-15.072 -20.979,-32.395 -22.407,-48.629c-1.27,-14.303 8.104,-32.258 12.873,-45.769c9.111,-27.335 16.442,-54.35 22.624,-82.956c13.479,-61.376 18.376,-123.004 18.376,-185.936l-80.095,0c-9.154,0 -24.509,-2.849 -32.327,2.941c-5.684,4.208 -8.576,13.665 -11.185,19.944c-9.657,23.216 -2.257,60.518 -2.257,85.816l-0,120.143c-0,16.225 -3.802,38.698 4.102,53.524c5.758,10.805 18.482,18.471 27.364,26.572c20.024,18.345 40.734,38.715 62.932,54.35Zm-689.393,-371.871l0,266.031c19.52,-12.209 36.461,-28.46 54.351,-42.908c8.581,-7.295 22.229,-15.453 26.88,-26.563c6.662,-15.911 1.725,-42.091 1.725,-59.254l0,-131.585c-27.701,-0 -55.317,-4.534 -82.956,-5.721Zm529.202,-22.805c-26.214,14.881 -0.938,56.21 25.433,41.916c27.173,-14.726 1.971,-57.117 -25.433,-41.916Zm-394.756,382.499c-27.627,11.688 -7.978,55.283 19.969,44.379c30.763,-12.003 9.297,-56.502 -19.969,-44.379Zm37.187,275.348c9.689,-34.129 24.14,-65.444 48.63,-91.495c13.742,-14.194 46.606,-28.039 48.46,-48.672c4.205,-46.901 0.169,-95.966 0.169,-143.027c-0,-32.167 4.663,-68.328 -0.423,-100.077c-2.438,-13.828 -16.102,-19.169 -24.713,-28.648c-15.524,-17.164 -21.225,-40.743 -14.28,-62.932c17.009,-54.345 93.601,-60.006 118.359,-8.582c11.439,23.757 7.672,52.231 -10.59,71.514c-8.917,9.231 -23.949,15.301 -27.396,28.648c-6.63,24.721 -0.909,57.4 -0.909,82.913l-0,97.259c-0,20.024 -1.783,40.571 2.86,60.072c32.405,-13.674 72.69,-8.576 105.841,-0c-0,-49.668 -2.263,-99.287 -2.861,-148.749c-0.163,-14.303 5.009,-40.048 -2.94,-53.278c-11.577,-18.84 -31.833,-25.038 -36.167,-49.702c-3.993,-22.724 1.422,-46.495 19.083,-61.991c34.055,-29.547 93.42,-15.212 104.319,30.525c4.98,20.914 0.437,43.686 -13.722,60.072c-9.683,11.442 -26.04,15.286 -27.665,31.509c-4.456,51.538 0,105.797 0,157.287c0,18.256 4.709,42.908 -0.16,60.072c-3.295,11.819 -10.667,23.513 -16.376,34.326c-17.822,33.755 -41.916,63.347 -75.001,83.156c-55.349,33.14 -138.792,31.484 -194.518,-0.2Zm108.701,-478.439c-26.918,10.63 -10.884,56.894 17.121,46.756c30.793,-11.148 13.728,-58.833 -17.121,-46.756Zm151.609,45.626c-28.637,7.563 -21.78,53.693 8.579,47.591c32.173,-6.465 22.887,-55.921 -8.579,-47.591Z" style="fill:#292627;"/><path d="M628.364,1056.3c86.429,-38.311 188.445,-26.955 250.398,48.63c19.887,24.257 31.747,53.403 41.378,82.956c-61.816,27.401 -144.549,31.566 -203.099,-5.721c-30.359,-19.727 -53.12,-48.189 -69.351,-80.096c-7.884,-14.878 -15.45,-29.452 -19.326,-45.769Zm-577.832,84.295c25.745,-4.886 51.49,5.933 66.829,27.27c5.784,8.087 7.546,20.081 14.869,26.918c6.602,6.29 18.422,7.405 27.003,9.199c142.156,35.394 284.136,71.574 426.223,107.271c31.466,8.218 74.171,12.761 102.854,29.043c13.765,7.809 18.899,27.149 2.674,35.831c-11.568,6.276 -28.293,-1.175 -39.736,-4.096c-32.467,-8.118 -64.845,-16.683 -97.258,-25.013c-127.575,-32.796 -255.505,-64.611 -383.314,-96.2c-12.939,-3.596 -35.288,-13.974 -48.63,-9.892c-8.81,2.826 -15.049,12.987 -22.927,18.474c-16.128,10.069 -42.127,12.483 -60.029,5.068c-57.211,-23.59 -50.122,-112.259 11.442,-123.873Zm5.722,40.843c-29.979,11.414 -12.481,56.582 17.037,44.038c26.406,-11.222 10.65,-54.545 -17.037,-44.038Zm1490.35,160.918c45.769,-14.303 93.597,-24.109 140.167,-36.427c128.379,-33.963 257.364,-65.455 386.175,-97.656c12.944,-3.224 34.326,-4.437 44.538,-13.49c9.812,-8.877 11.855,-25.225 21.254,-35.38c27.25,-28.208 74.912,-25.868 98.295,5.641c20.124,27.504 16.831,67.804 -9.884,89.973c-30.307,25.147 -79.929,18.068 -96.992,-18.502c-72.956,15.058 -145.365,35.74 -217.402,54.682c-104.636,27.513 -209.682,54.019 -314.661,80.127c-17.775,4.446 -40.059,5.613 -56.725,12.761c-13.771,5.904 -22.773,18.957 -37.673,24.16c-33.331,11.637 -73.136,-5.689 -83.528,-40.145c-15.865,-52.599 38.852,-102.979 89.246,-78.942c21.388,10.329 32.041,31 37.19,53.198Zm629.322,-160.918c-28.729,11.331 -10.029,56.502 19.898,44.373c28.436,-11.525 7.654,-55.089 -19.898,-44.373Zm-697.975,143.065c-30.391,4.908 -25.745,52.705 5.718,48.212c31.469,-4.577 25.41,-53.244 -5.718,-48.212Z" style="fill:#292627;"/><path d="M1123.24,1588.36c-26.806,56.41 -96.48,101.87 -160.19,93.572c-20.19,-2.632 -74.804,-14.661 -73.339,-42.048c0.661,-12.372 13.267,-19.726 24.709,-18.244c22.756,2.949 41.673,18.21 65.793,18.21c41.08,-0 77.074,-32.258 100.119,-62.932c7.875,-9.972 17.873,-21.866 20.774,-34.327c10.692,-47.685 -40.984,-76.608 -66.543,-108.701c-13.138,-16.517 -31.695,-39.052 -12.706,-58.547c12.706,-12.967 32.73,-10.106 49.894,-10.106c43.983,-0 90.748,-4.574 134.445,0.312c14.303,1.642 27.147,12.952 27.765,28.293c0.692,17.195 -14.294,34.327 -25.161,45.769c-17.481,18.871 -49.205,39.121 -59.815,62.932c-4.648,11.551 -1.032,37.436 4.054,48.63c18.639,41.009 72.987,94.398 121.811,90.928c22.884,-1.43 43.592,-19.414 65.79,-20.507c13.393,-0.409 24.114,14.191 18.848,26.838c-8.061,19.071 -37.963,26.288 -56.033,31.466c-64.422,16.422 -153.649,-26.254 -174.493,-91.538l-5.722,-0Zm-709.416,-213.329c11.442,-1.212 31.466,-4.682 42.484,1.728c11.866,7.137 10.773,26.538 -0.56,33.738c-9.526,6.23 -25.29,5.429 -36.203,6.444c-21.961,2.043 -43.755,4.62 -65.793,5.619c-70.538,3.203 -141.349,10.727 -211.681,17.266c-22.936,2.131 -45.769,5.661 -68.653,5.506c-9.4,0 -20.241,0.244 -25.745,-8.581c-5.798,-10.458 -1.519,-24.212 8.582,-28.606c17.795,-8.473 46.704,-7.603 65.792,-8.47c63.939,-2.9 127.938,-10.721 191.657,-16.786c33.34,-3.175 66.851,-3.349 100.12,-7.858Zm1378.79,0.91c23.385,-9.923 61.407,2.377 85.816,3.599c82.072,3.612 164.182,12.629 246.008,20.238c19.935,1.854 50.597,-1.213 68.341,8.876c11.388,6.477 14.32,22.53 4.165,31.695c-6.965,6.285 -18.156,4.983 -26.738,4.983c-25.745,0.003 -52.067,-3.63 -77.234,-6.934c-71.514,-9.334 -143.228,-11.425 -214.542,-18.324c-26.237,-2.54 -57.712,0.457 -82.956,-8.073c-15.902,-5.443 -19.374,-28.823 -2.86,-36.06Zm48.629,160.929c-37.187,-5.424 -71.514,-30.11 -107.883,-33.414c-9.4,-0.827 -16.242,6.431 -23.705,10.661c-8.951,5.075 -18.325,7.881 -28.603,8.45c-50.732,2.123 -89.372,-56.044 -58.215,-100.107c38.789,-54.863 116.951,-22.716 118.287,40.036c26.849,2.36 54.35,16.27 80.095,24.792l183.075,61.024c27.264,9.088 57.211,25.745 85.817,28.912c20.602,2.612 37.977,-18.431 60.072,-16.528c31.466,2.726 57.211,26.917 59.794,59.13c3.787,55 -61.659,89.95 -105.563,55.615c-17.965,-14.183 -22.885,-36.735 -22.885,-58.475c-31.883,-4.709 -63.853,-19.378 -94.398,-29.559c-33.789,-11.264 -71.514,-19.62 -102.98,-36.234c-47.31,113.635 -159.164,199.094 -263.171,258.253c-277.788,158.006 -633.918,168.009 -923.958,37.259c-96.675,-43.583 -183.075,-103.049 -257.449,-178.23c-29.43,-29.572 -68.073,-70.698 -80.096,-111.561c-39.327,15.169 -80.095,27.47 -120.143,40.048c-20.788,6.387 -46.561,10.412 -65.793,21.62c-11.442,6.985 -7.943,21.663 -12.452,32.73c-9.125,22.407 -26.943,34.584 -50.48,38.246c-70.112,10.898 -98.512,-89.736 -37.187,-121.202c17.163,-8.582 36.011,-9.623 54.35,-2.46c11.443,4.594 20.799,15.201 34.327,12.263c35.313,-7.666 71.471,-23.139 105.84,-34.595c64.371,-21.457 129.352,-42.525 194.518,-61.024c7.294,-2.521 15.819,-4.334 21.274,-10.041c8.364,-8.75 9.28,-23.11 17.04,-32.825c14.758,-18.476 36.06,-24.535 58.945,-22.661c76.422,6.267 68.032,123.124 -5.721,128.459c-14.303,0.698 -28.689,-4.088 -40.048,-12.635c-6.391,-4.529 -12.386,-13.823 -20.842,-14.932c-8.628,-1.039 -19.606,4.782 -27.788,7.543c-22.077,5.953 -43.683,13.751 -65.792,20.024c99.181,147.015 252.292,254.675 423.361,303.218c0,-15.478 5.679,-42.776 -0.566,-56.725c-5.155,-11.021 -19.457,-19.3 -28.039,-27.049c-17.587,-15.453 -34.573,-31.529 -51.49,-47.7c-7.824,-7.477 -18.002,-13.994 -24.02,-22.996c-6.482,-9.934 -4.585,-22.884 -4.585,-34.326c-0,-24.261 5.592,-56.405 -0.91,-79.795c-2.884,-10.373 -13.96,-13.694 -21.975,-19.721c-11.602,-9.185 -20.456,-22.761 -22.355,-37.791c-3.619,-28.605 7.698,-56.121 33.797,-70.321c34.327,-18.356 83.56,2.4 90.597,41.716c3.764,21.045 0.191,43.56 -14.303,60.071c-6.571,7.094 -16.937,11.875 -21.943,20.551c-4.091,7.346 -2.861,17.111 -2.861,25.218c-0.008,19.1 -6.648,53.79 2.861,70.696c6.31,10.987 19.297,19.174 28.605,27.381c18.465,16.345 36.916,33.509 54.351,50.675c7.826,7.801 17.163,15.701 22.372,25.742c7.435,14.866 4.451,41.089 2.555,57.211c-1.136,9.686 -4.903,21.792 4.588,28.783c16.254,12.569 50.58,13.001 70.604,16.986c68.628,13.722 138.969,17.984 208.82,17.163c20.72,0 42.359,-2.434 62.933,-4.903c6.911,-0.818 15.924,0.283 21.974,-3.679c8.107,-5.492 6.614,-17.163 6.631,-25.745c0,-24.921 -3.189,-49.404 -2.86,-74.374c-0,-14.303 4.259,-33.637 22.884,-32.73c16.551,1.264 19.827,16.428 20.012,29.87c0.012,33.359 0.012,66.756 0.012,100.119c21.703,-5.347 43.992,-8.299 65.792,-13.305c8.25,-1.893 20.505,-3.186 25.665,-10.81c4.901,-7.231 2.941,-18.793 2.941,-27.375c0,-22.473 -7.337,-60.858 7.192,-79.609c17.008,-21.955 44.221,-38.549 64.322,-57.698c12.606,-12.191 22.529,-21.923 22.87,-40.047c0.014,-14.303 -1.593,-28.457 -2.846,-42.909c-0.235,-7.131 1.195,-15.547 -1.725,-22.275c-4.428,-10.201 -18.376,-14.912 -25.359,-23.493c-18.685,-22.885 -19.664,-56.365 -2.558,-80.084c32.216,-44.674 102.062,-25.757 113.945,25.733c4.374,20.024 -1.957,42.293 -16.188,56.682c-8.044,7.806 -21.159,12.38 -24.297,23.711c-5.81,20.977 -0.91,49.482 -0.91,71.216c-0,9.283 1.347,20.033 -2.941,28.606c-12.048,24.097 -42.859,44.667 -62.852,62.114c-7.54,6.582 -17.747,12.787 -22.884,21.66c-4.073,7.286 -2.861,16.874 -2.861,24.927l0,51.49c36.361,-14.026 73.105,-25.745 108.701,-42.033c13.511,-6.093 33.992,-11.319 44.044,-22.722c10.17,-11.536 4.586,-40.925 4.586,-55.388c-0,-16.709 -2.06,-34.974 0.64,-51.49c1.293,-7.918 5.928,-14.878 6.671,-22.885c1.27,-17.812 -2.52,-31.466 6.751,-48.618c19.87,-36.443 74.615,-42.919 102.105,-11.187c43.208,50.669 -11.834,129.92 -73.259,99.853l-2.861,65.793c64.271,-34.215 123.505,-85.817 171.49,-140.167c21.638,-24.418 45.912,-53.538 54.494,-85.817Zm-1115.62,-49.736c-30.869,7.42 -18.617,52.628 11.428,45.923c30.138,-6.728 18.568,-53.129 -11.428,-45.923Zm-635.043,118.469c-25.224,14.223 -3.149,55.587 22.573,41.51c25.659,-14.04 4.456,-55.892 -22.573,-41.51Zm1544.7,13.488c-27.195,10.684 -10.899,55.086 17.038,43.643c27.101,-10.913 11.568,-54.851 -17.038,-43.643Zm-157.33,-117.283c-27.896,11.428 -9.274,56.104 19.898,44.379c28.654,-11.517 9.517,-56.299 -19.898,-44.379Zm188.796,-65.792c-28.605,11.528 -9.411,56.158 19.898,44.378c28.686,-11.528 9.537,-56.158 -19.898,-44.378Zm-1127.06,22.881c-25.079,10.862 -7.183,52.228 19.969,41.919c28.66,-10.933 8.636,-54.088 -19.969,-41.919Zm1599.05,143.073c-28.674,10.396 -14.934,56.994 14.26,46.462c28.649,-10.733 14.346,-56.948 -14.26,-46.462Z" style="fill:#292627;"/></svg>