<?xml version="1.0" encoding="UTF-8" standalone="no"?>
<!DOCTYPE svg PUBLIC "-//W3C//DTD SVG 1.1//EN" "http://www.w3.org/Graphics/SVG/1.1/DTD/svg11.dtd">
<svg width="100%" height="100%" viewBox="0 0 3400 720" version="1.1" xmlns="http://www.w3.org/2000/svg" xmlns:xlink="http://www.w3.org/1999/xlink" xml:space="preserve" xmlns:serif="http://www.serif.com/" style="fill-rule:evenodd;clip-rule:evenodd;stroke-linejoin:round;stroke-miterlimit:2;">
    <g id="cat" transform="matrix(0.666667,0,0,0.666667,45.5606,71.3)">
        <g transform="matrix(1.52563,0,0,1.52563,-970.81,-987.33)">
            <path d="M771,663C769.751,678.689 765.667,694.265 764.17,710C761.985,733 764.29,757.284 767.579,780C769.721,794.787 772.796,809.751 777.344,824C779.347,830.276 785,839.362 783.486,846C781.773,853.104 776.437,860.396 773.258,867C768.701,876.467 765.563,887 762.884,897C760,907.565 757.864,918.188 756.272,929C755.564,933.804 756,940.599 753.682,945C750.422,951 742,949.376 740.448,943C738.879,936.813 741.814,928.207 742.728,922C745.603,902.493 750.697,883.313 758,865C760.7,858.231 766.44,850.221 767.295,843C767.817,838.587 764.669,833.148 763.344,829C760.633,820.513 758.574,811.728 756.801,803C749,765.033 746.523,726.46 751.87,688C753,679 754.882,670 757,661C758,657.34 758.511,652.418 761,649.434C763.971,646 769,647.25 773,648.12C783,650.396 793,653 803,656.029C835,666.218 865.404,685.115 891,706.589C900,714.158 912.951,723.174 918,734C965.759,718 1014.88,712.316 1065,717.17C1082,718.83 1099.4,722.015 1116,726.576C1121.45,728.075 1132.62,733.826 1138,731.788C1143,730 1147.28,723.676 1151,720.004C1157.88,713.201 1165.42,707.013 1173,701.003C1196.73,682.185 1224.18,666 1253,656.333C1262.83,653.045 1272.79,650.268 1283,648.424C1286.61,647.772 1291.4,646.239 1294.61,648.746C1298.89,652.1 1299.73,660.025 1300.79,665C1303.82,679.247 1306,693.474 1307,708C1309.33,738.521 1307,769 1301.2,799C1299.28,808.792 1296.46,818.418 1293.71,828C1292.51,832.185 1289.64,837.627 1290,842C1290.37,846.146 1293.49,850.26 1295,854C1298.42,861.429 1301.56,869.209 1303.86,877C1309,895 1313.92,913.251 1314.96,932C1315.26,937.258 1318.19,946.34 1312.66,949.821C1308.48,952.446 1300.74,951 1296,951C1282.56,951 1267.3,949 1254,951.148C1247.69,952.197 1245,962 1239,965C1233.23,968 1224.81,968 1219,965.175C1198.52,955.422 1205,923.183 1228,922.46C1233.7,922.28 1239.48,924.543 1243.56,928.468C1246.28,931.087 1248.26,935.618 1252,936.682C1255.73,937.684 1260.27,937 1264,937C1276.32,937 1288.79,934.733 1301,937C1300.76,925.385 1297.79,913.273 1295,902C1293.98,897.209 1293.27,891.219 1290.3,887.17C1287.35,883.154 1282.67,880.251 1279,877C1269.42,868.242 1259.64,859.776 1250,851.166C1245.61,847.247 1238.95,843.264 1236.18,838C1232.56,831.042 1236,819.55 1236,812C1236,791.664 1235,771.382 1235,751C1226.6,752.536 1217.98,750 1212.56,743C1204,732 1208,714.144 1221,708.533C1227.82,705.572 1236.97,706.497 1242.99,710.8C1246.41,713.247 1248.78,717.593 1253,718.682C1257,719.709 1261.9,719 1266,719L1293,719C1293,705.621 1290.95,692.156 1288.58,679C1287.87,675.089 1287.46,667.457 1284.27,664.694C1281.65,662.415 1276.82,664.773 1274,665.579C1264.85,668.189 1255.83,671.258 1247,674.8C1220.72,685.344 1196.7,701.035 1175,719.081C1167.4,725.397 1159.95,732 1153,739C1149.78,742.261 1146.51,747.393 1141.99,749C1136.64,750.672 1129,746.255 1124,744.72C1111,741 1097.41,736.095 1084,735L1084,784C1084,790.339 1085.78,800 1083.26,805.826C1081.38,810.206 1075.55,813.461 1072,816.414C1063,824 1050.64,831.033 1043.32,840.09C1039.3,845.065 1041,854 1041,860L1041,905C1041,910.471 1039.44,919 1042.18,923.829C1044.81,928.556 1050.95,932 1055,935.275C1065,943.738 1075.54,952 1085,961L1085,884C1071.37,881.362 1066,864.668 1072,853.001C1076.98,843.125 1088.8,839.085 1099,842.61C1102.66,844 1106,846.187 1108.66,849.093C1115.65,857.038 1115.71,869.707 1109,877.826C1105.73,882 1099.58,883.225 1099,889.015C1097.65,904.74 1099,921.207 1099,937C1099,947.61 1097.48,959.511 1099,970C1099.97,975.16 1105.44,977.272 1107.26,982.001C1109.93,989 1108,999.603 1108,1007C1108,1019.11 1107.39,1031 1107.9,1043C1108,1047 1107,1051.66 1102.94,1053.24C1093.61,1056.79 1094,1044.48 1094,1039L1094,1003C1094,998.239 1095.28,991.275 1092.4,987.171C1090,984 1086,981.479 1083,979C1076.36,973.187 1069.7,967.523 1063,962C1041.64,944.062 1020.39,926.071 999,908.247L978,890.586C974.292,887.5 969.412,884.41 967.179,880C965,876 966,870.393 966,866L966,838C953.222,835.422 947.64,819.287 952.533,808C956.953,797.805 969.51,792.461 980,796.109C992.537,800.468 998.875,816.266 992.442,828C989.788,833 983.687,835.264 981.589,840.104C978.939,846.218 980,854.515 980,861C980,864.19 979.518,868 980.318,871C981.732,876.489 988.853,880.241 993,883.611C1004.71,893.124 1015.72,904.347 1028,913C1026,906.416 1027,899 1027,892L1027,730C1000.48,730 974.694,734 949,740.374C941.285,742.328 933.564,744.528 926,747C922.481,748.15 917.811,750.376 914,749.052C909.766,747.513 906,742.151 903,739C895.239,731.23 887.503,723.584 879,716.614C855,697.028 828.394,680.562 799,670.667C789.987,667.634 780.535,663.779 771,663ZM968,810.028C958.933,815.304 967.538,830.03 976.891,824.82C986.42,819.512 977.672,804.558 968,810.028ZM1227,936.667C1215.98,939 1219.79,955.467 1231,952.681C1241,950.19 1236.84,934.675 1227,936.667ZM1282,860C1279.81,854.731 1274.67,848.675 1274.17,843C1273.72,838 1277,831.723 1278.67,827C1281.85,817.444 1284.41,808 1286.58,798C1291.29,776.544 1293,755 1293,733L1265,733C1261.8,733 1256.43,732.004 1253.7,734.028C1251.71,735.499 1250.7,738.805 1249.79,741C1246.41,749.116 1249,762.156 1249,771L1249,813C1249,818.672 1247.67,826.528 1250.43,831.711C1252.45,835.488 1256.89,838.168 1260,841C1267,847.413 1274.24,854.534 1282,860ZM1041,730L1041,823C1047.82,818.732 1053.75,813.051 1060,808C1063,805.45 1067.77,802.598 1069.4,798.714C1071.73,793.152 1070,784 1070,778L1070,732C1060.32,732 1050.66,730.415 1041,730ZM1226,722.028C1216.84,727.23 1225.67,741.678 1234.89,736.681C1244.39,731.533 1235.58,716.714 1226,722.028ZM1088,855.743C1078.34,859.829 1085.21,875.069 1094.98,871.257C1105.74,867.061 1098.23,851.505 1088,855.743ZM1101,952C1104.39,940.069 1109.44,929.122 1118,920.015C1122.8,915.053 1134.29,910.213 1134.94,903C1136.41,886.604 1135,869.452 1135,853C1135,841.755 1136.63,829.114 1134.85,818.015C1134,813.181 1129.22,811.314 1126.21,808C1120.79,802 1118.79,793.757 1121.22,786C1127.17,767.002 1153.94,765.023 1162.6,783C1166.6,791.305 1165.28,801.259 1158.89,808C1155.78,811.227 1150.52,813.349 1149.32,818.015C1147,826.657 1149,838.081 1149,847L1149,881C1149,888 1148.38,895.183 1150,902C1161.33,897.22 1175.41,899.002 1187,902C1187,884.637 1186.21,867.291 1186,850C1185.94,845 1187.75,836 1184.97,831.375C1180.92,824.789 1173.84,822.622 1172.33,814C1170.93,806.056 1172.83,797.746 1179,792.329C1190.9,782 1211.66,787.011 1215.47,803C1217.21,810.311 1215.62,818.272 1210.67,824C1207.29,828 1201.57,829.344 1201,835.015C1199.44,853.032 1201,872 1201,890C1201,896.382 1202.65,905 1200.94,911C1199.79,915.132 1197.21,919.22 1195.22,923C1188.99,934.8 1180.57,945.145 1169,952.07C1149.65,963.655 1120.48,963.076 1101,952ZM1139,784.746C1129.59,788.462 1135.19,804.635 1144.99,801.091C1155.75,797.194 1149.78,780.524 1139,784.746ZM1192,800.696C1181.99,803.34 1184.39,819.466 1195,817.333C1206.25,815.073 1203,797.784 1192,800.696Z" style="fill:rgb(226,236,239);"/>
        </g>
        <g transform="matrix(1.52563,0,0,1.52563,-970.81,-987.33)">
            <path d="M856,907C886.214,893.607 921.877,897.577 943.535,924C950.487,932.48 954.633,942.669 958,953C936.39,962.579 907.468,964.035 887,951C876.387,944.104 868.43,934.154 862.756,923C860,917.799 857.355,912.704 856,907ZM654,936.468C663,934.76 672,938.542 677.362,946.001C679.384,948.828 680,953.021 682.56,955.411C684.868,957.61 689,958 692,958.627C741.695,971 791.329,983.648 841,996.127C852,999 866.929,1000.59 876.956,1006.28C881.768,1009.01 883.563,1015.77 877.891,1018.81C873.847,1021 868,1018.39 864,1017.37C852.65,1014.54 841.331,1011.54 830,1008.63C785.402,997.165 740.68,986.043 696,975C691.477,973.743 683.664,970.115 679,971.542C675.92,972.53 673.739,976.082 670.985,978C665.347,981.52 656.258,982.364 650,979.772C630,971.525 632.478,940.528 654,936.468ZM656,950.746C645.52,954.736 651.637,970.526 661.956,966.141C671.187,962.218 665.679,947.073 656,950.746ZM1177,1007C1193,1002 1209.72,998.572 1226,994.266C1270.88,982.393 1315.97,971.384 1361,960.127C1365.53,959 1373,958.576 1376.57,955.411C1380,952.308 1380.71,946.593 1384,943.043C1393.53,933.182 1410.19,934 1418.36,945.015C1425.4,954.63 1424.25,968.718 1414.91,976.468C1404.31,985.259 1386.96,982.784 1381,970C1355.5,975.264 1330.18,982.494 1305,989.116C1268.42,998.734 1231.7,1008 1195,1017.13C1188.79,1018.68 1181,1019.09 1175.17,1021.59C1170.36,1023.65 1167.21,1028.21 1162,1030.03C1150.35,1034.1 1136.43,1028.05 1132.8,1016C1127.25,997.612 1146.38,980 1164,988.403C1171.48,992.014 1175.2,999.24 1177,1007ZM1397,950.746C1386.96,954.707 1393.49,970.498 1403.96,966.258C1413.9,962.229 1406.63,947 1397,950.746ZM1153,1000.76C1142.38,1002.48 1144,1019.18 1155,1017.61C1166,1016.01 1163.88,999 1153,1000.76Z" style="fill:rgb(226,236,239);"/>
        </g>
        <g transform="matrix(1.52563,0,0,1.52563,-970.81,-987.33)">
            <path d="M1029,1093C1019.63,1112.72 995.272,1128.61 973,1125.71C965.942,1124.79 946.85,1120.59 947.362,1111.01C947.593,1106.69 952,1104.12 956,1104.63C963.955,1105.66 970.568,1111 979,1111C993.361,1111 1005.94,1099.72 1014,1089C1016.75,1085.51 1020.25,1081.36 1021.26,1077C1025,1060.33 1006.94,1050.22 998,1039C993.407,1033.23 986.92,1025.35 993.558,1018.53C998,1014 1005,1015 1011,1015C1026.38,1015 1042.72,1013.4 1058,1015.11C1063,1015.68 1067.49,1019.64 1067.71,1025C1067.95,1031.01 1062.71,1037 1058.91,1041C1052.8,1047.6 1041.71,1054.68 1038,1063C1036.38,1067.04 1037.64,1076.09 1039.42,1080C1045.93,1094.34 1064.93,1113 1082,1111.79C1090,1111.29 1097.24,1105 1105,1104.62C1109.68,1104.48 1113.43,1109.58 1111.59,1114C1108.77,1120.67 1098.32,1123.19 1092,1125C1069.48,1130.74 1038.29,1115.82 1031,1093L1029,1093ZM781,1018.42C785,1018 792,1016.79 795.852,1019.03C800,1021.52 799.618,1028.31 795.656,1030.82C792.326,1033 786.815,1032.72 783,1033.08C775.323,1033.79 767.704,1034.69 760,1035.04C735.341,1036.16 710.587,1038.79 686,1041.08C677.982,1041.82 670,1043.05 662,1043C658.714,1043 654.924,1043.09 653,1040C650.973,1036.34 652.469,1031.54 656,1030C662.221,1027.04 672.327,1027.34 679,1027.04C701.352,1026.03 723.725,1023.29 746,1021.17C757.655,1020.06 769.37,1020 781,1018.42ZM1263,1018.74C1271.17,1015.27 1284.47,1019.57 1293,1020C1321.69,1021.26 1350.39,1024.41 1379,1027.08C1385.97,1027.72 1396.69,1026.65 1402.89,1030.18C1406.87,1032.44 1407.9,1038.05 1404.35,1041.26C1401.91,1043.45 1398,1043 1395,1043C1386,1043 1376.8,1041.73 1368,1040.58C1343,1037.31 1317.93,1036.58 1293,1034.17C1283.83,1033.28 1272.83,1034.33 1264,1031.35C1258.44,1029.44 1257.23,1021.27 1263,1018.74ZM1280,1075C1267,1073.1 1255,1064.47 1242.29,1063.32C1239,1063.03 1236.61,1065.57 1234,1067.05C1230.87,1068.82 1227.59,1069.8 1224,1070C1206.27,1070.74 1192.76,1050.41 1203.65,1035C1217.21,1015.83 1244.53,1027.06 1245,1049C1254.39,1049.83 1264,1054.69 1273,1057.67L1337,1079C1346.53,1082.18 1357,1088 1367,1089.11C1374.2,1090.02 1380.28,1082.66 1388,1083.33C1399,1084.28 1408,1092.74 1408.9,1104C1410.23,1123.23 1387.35,1135.44 1372,1123.44C1365.72,1118.48 1364,1110.6 1364,1103C1352.85,1101.35 1341.68,1096.23 1331,1092.67C1319.19,1088.73 1306,1085.81 1295,1080C1278.46,1119.73 1239.36,1149.6 1203,1170.28C1105.89,1225.52 981.393,1229.01 880,1183.31C846.204,1168.07 816,1147.28 790,1121C779.712,1110.66 766.203,1096.29 762,1082C748.252,1087.3 734,1091.6 720,1096C712.733,1098.23 703.723,1099.64 697,1103.56C693,1106 694.223,1111.13 692.647,1115C689.457,1122.83 683.228,1127.09 675,1128.37C650.49,1132.18 640.562,1097 662,1086C668,1083 674.589,1082.64 681,1085.14C685,1086.75 688.271,1090.45 693,1089.43C705.345,1086.75 717.985,1081.34 730,1077.33C752.503,1069.83 775.219,1062.47 798,1056C800.55,1055.12 803.53,1054.49 805.437,1052.49C808.361,1049.43 808.681,1044.41 811.394,1041.02C816.553,1034.56 824,1032.44 832,1033.09C858.716,1035.28 855.783,1076.13 830,1078C825,1078.24 819.971,1076.57 816,1073.58C813.766,1072 811.67,1068.75 808.714,1068.36C805.698,1068 801.86,1070.04 799,1071C791.282,1073.08 783.729,1075.81 776,1078C810.672,1129.39 864.197,1167.03 924,1184C924,1178.59 925.985,1169.05 923.802,1164.17C922,1160.32 917,1157.42 914,1154.71C907.852,1149.31 901.914,1143.69 896,1138.04C893.265,1135.42 889.707,1133.15 887.603,1130C885.337,1126.53 886,1122 886,1118C886,1109.52 887.955,1098.28 885.682,1090.11C884.674,1086.48 880.802,1085.32 878,1083.21C873.944,1080 870.849,1075.25 870.185,1070C868.92,1060 872.876,1050.38 882,1045.42C894,1039 911.211,1046.26 913.671,1060C914.987,1067.36 913.738,1075.23 908.671,1081C906.374,1083.48 902.75,1085.15 901,1088.18C899.57,1090.75 900,1094.17 900,1097C899.997,1103.68 897.676,1115.8 901,1121.71C903.206,1125.56 907.746,1128.42 911,1131.29C917.455,1137 923.905,1143 930,1149C932.736,1151.73 936,1154.49 937.821,1158C940.42,1163.2 939.377,1172.36 938.714,1178C938.317,1181.39 937,1185.62 940.318,1188.06C946,1192.46 958,1192.61 965,1194C988.991,1198.8 1013.58,1200.29 1038,1200C1045.24,1200 1052.81,1199.15 1060,1198.29C1062.42,1198 1065.57,1198.38 1067.68,1197C1070.52,1195.08 1069.99,1191 1070,1188C1070,1179.29 1068.88,1170.73 1069,1162C1069,1157 1070.49,1150.24 1077,1150.56C1082.79,1151 1083.93,1156.3 1084,1161C1084,1172.66 1084,1184.34 1084,1196C1091.59,1194.13 1099.38,1193.1 1107,1191.35C1109.88,1190.69 1114.17,1190.24 1115.97,1187.57C1117.68,1185.04 1117,1181 1117,1178C1117,1170.14 1114.43,1156.73 1119.51,1150.17C1125.46,1142.5 1134.97,1136.69 1142,1130C1146.41,1125.74 1149.88,1122.34 1150,1116C1150,1111 1149.44,1106.05 1149,1101C1148.92,1098.51 1149.42,1095.57 1148.4,1093.21C1146.85,1089.65 1141.97,1088 1139.53,1085C1133,1077 1132.66,1065.3 1138.64,1057C1149.9,1041.39 1174.32,1048 1178.47,1066C1180,1073 1177.79,1080.79 1172.81,1085.82C1170,1088.54 1165.41,1090.14 1164.32,1094.1C1162.29,1101.44 1164,1111.4 1164,1119C1164,1122.25 1164.47,1126 1162.97,1129C1158.76,1137.42 1147.99,1144.62 1141,1150.71C1138.36,1153.02 1134.8,1155.18 1133,1158.29C1131.58,1160.83 1132,1164.18 1132,1167L1132,1185C1144.71,1180.1 1157.56,1176 1170,1170.31C1174.72,1168.18 1181.88,1166.35 1185.4,1162.36C1188.95,1158.33 1187,1148.06 1187,1143C1187,1137.16 1186.28,1130.77 1187.22,1125C1187.68,1122.23 1189.3,1119.8 1189.56,1117C1190,1110.77 1188.67,1106 1191.92,1100C1198.86,1087.26 1218,1085 1227.61,1096.09C1242.71,1113.81 1223.47,1141.51 1202,1131L1201,1154C1223.47,1142.04 1244.17,1124 1260.95,1105C1268.51,1096.46 1277,1086.28 1280,1075ZM890,1057.61C879.209,1060.21 883.492,1076.01 893.995,1073.67C904.531,1071.32 900.486,1055.09 890,1057.61ZM668,1099.03C659.182,1104 666.899,1118.46 675.891,1113.54C684.861,1108.63 677.449,1094 668,1099.03ZM1208,1103.74C1198.49,1107.48 1204.19,1123 1213.96,1119C1223.43,1115.18 1218,1099.83 1208,1103.74ZM1153,1062.74C1143.25,1066.74 1149.76,1082.36 1159.96,1078.26C1169.97,1074.23 1163.28,1058.58 1153,1062.74ZM1219,1039.74C1209,1043.77 1215.71,1059.38 1225.96,1055.26C1235.98,1051.23 1229.29,1035.62 1219,1039.74ZM825,1047.74C816.233,1051.54 822.489,1066 831.981,1062.4C842,1058.57 835,1043.49 825,1047.74ZM1384,1097.76C1373.98,1101.39 1378.78,1117.68 1388.99,1114C1399,1110.25 1394,1094.09 1384,1097.76Z" style="fill:rgb(226,236,239);"/>
        </g>
    </g>
    <g id="stray-circuits" serif:id="stray circuits" transform="matrix(2.33871,0,0,2.33871,-297.67,-2867.7)">
        <path d="M537,1414C544.625,1421 554.634,1425 565,1422.61C570.631,1421.38 578.354,1415.49 574.242,1409.09C565.603,1395.67 538.655,1405.54 534.394,1387C529,1363.67 566.99,1357 579.623,1371.53C582,1374.44 579.666,1378.15 575.995,1377.69C573,1377.33 570.592,1375.04 568,1374C561.839,1371.37 552.757,1370.67 547,1374.7C544.172,1376.73 541.499,1380.3 542.647,1384C544.263,1389.2 550.326,1391.23 555,1392.57C565.936,1395.71 583.523,1397.05 583.941,1412C584.215,1421.78 575.992,1428.34 567,1430C554.43,1432 539.259,1429.7 531,1419C532.945,1417.14 534.794,1415.53 537,1414ZM1038,1364.43C1044.76,1363.49 1052.33,1365.31 1058,1369.11C1060,1370.54 1063.49,1373 1063,1376C1062.74,1378.35 1060,1379.21 1058,1378.63C1049.77,1376.39 1045.48,1370.68 1036,1372.47C1008.81,1377.59 1010,1418.21 1037,1422.67C1042.34,1423.56 1047.29,1422.17 1052,1419.68C1054.59,1418.31 1057.79,1415.4 1060.94,1416.02C1069.51,1417.71 1058.74,1425.61 1056,1427.01C1043.76,1433.21 1025.73,1431 1016.19,1421C1003.22,1407.3 1004.45,1382.01 1020,1370.79C1025.29,1367 1031.63,1365.31 1038,1364.43ZM1267,1419C1261.48,1425 1255,1429 1247,1429.83C1241,1430.46 1234.6,1430.36 1229,1428.29C1224.35,1426.57 1220.46,1423.61 1217,1420C1204,1406 1207.26,1382 1222,1370.39C1234.97,1360.29 1257.23,1362.77 1267,1376C1260,1381.01 1257.75,1376.51 1251,1373.77C1246.6,1372 1241.65,1371.53 1237,1372.52C1212.96,1377.65 1210.24,1413.67 1234,1421.53C1239.71,1423.42 1245.42,1423.06 1251,1421C1257,1418.48 1261.4,1412.69 1267,1419ZM618,1365L672,1365L672,1372L649,1373L649,1430C639.218,1430 641,1423 641,1415L641,1386C641,1382.66 641.977,1377.24 639.972,1374.33C638.332,1372 635.443,1372.65 633,1373C628,1373.22 622.986,1373 618,1373L618,1365ZM710,1365C722.704,1365 741,1361.66 751.985,1369.64C766,1380.04 758.661,1401.53 742,1403C747.835,1411.83 757.597,1420 761,1430C758,1430 754.877,1430.31 752.289,1428.82C743.699,1424 740.751,1411.44 732.711,1405.6C728.885,1402.83 722.482,1404 718,1404L718,1430L710,1430L710,1365ZM718,1372L718,1397C726.298,1397 738.528,1399.22 745.906,1394.72C753.317,1390.2 752.427,1378.43 744.96,1374.46C737.321,1370.39 726.333,1372 718,1372ZM820,1365C822.392,1365 825.424,1364.58 827.66,1365.6C831.997,1367.59 834.24,1376 836.247,1380C841,1389.79 845,1400 849.424,1410C852.303,1416.62 855.999,1423.05 858,1430C855.275,1430 851.916,1430 849.699,1428.06C845.46,1424.49 845.867,1417.03 840.787,1414.03C838.269,1412.54 834.797,1413 832,1413C825.687,1413 819.311,1412.74 813,1413.02C803.697,1413.43 805.32,1423.21 800,1428.4C797.958,1430.43 794.661,1430 792,1430C793,1423.7 796.563,1417.83 799,1412C805.892,1396.73 815.39,1381 820,1365ZM824,1373L810,1406L839,1406C836.465,1395.33 830,1382.11 824,1373ZM879,1365C881.766,1365 885.196,1364.54 887.674,1366.03C890.777,1368 892.718,1372.08 894.667,1375C899.343,1382.01 903.539,1389.58 909,1396C912.898,1388.68 917.737,1382 922.333,1375C924.282,1372.08 926.223,1368 929.326,1366.03C931.803,1364.54 935.234,1365 938,1365C932.545,1379.39 918.269,1389.67 912.843,1404C910,1411.35 912,1422.2 912,1430L904,1430C904,1422 906,1410.51 903,1403C897.734,1389.21 883.542,1379.23 879,1365ZM1096,1365L1103,1365L1103,1430L1096,1430L1096,1365ZM1136,1430C1135.36,1415 1135,1400.07 1135,1385C1135,1380.1 1133.41,1371.78 1135.6,1367.32C1137.42,1363.63 1144.67,1365 1148,1365C1159.69,1365 1172.62,1363.55 1180.58,1374C1189.35,1385.52 1181,1402.27 1167,1403C1172,1412 1182.27,1420 1185,1430C1182.56,1430 1179.59,1430.39 1177.3,1429.4C1174.58,1428.22 1172.84,1425.27 1171,1423C1166.96,1417.48 1162.8,1409.47 1156.96,1405.6C1153,1403.05 1147.42,1404 1143,1404L1143,1430L1136,1430ZM1143,1372L1143,1397C1150.81,1397 1161.8,1399 1168.99,1395.43C1177.39,1391.29 1177.76,1380 1169.98,1375.01C1162.43,1370.24 1151.5,1372 1143,1372ZM1294,1365L1302,1365L1302,1394C1302,1400 1301.65,1406.53 1304.45,1412C1311.23,1425.21 1330.56,1426.81 1338.52,1414C1344,1405.08 1341,1389.12 1341,1379C1341,1371.23 1339.59,1365.11 1349,1365L1349,1397C1349,1403.73 1349.49,1410.81 1346.32,1417C1337.72,1433.79 1308.34,1435.34 1298.48,1419C1294.25,1412 1294,1403 1294,1395L1294,1365ZM1384,1430C1382.74,1414.03 1383,1398.05 1383,1382C1383,1378.2 1381.29,1368.68 1384.6,1366.03C1386.28,1364.69 1389,1365.02 1391,1365L1391,1430L1384,1430ZM1422,1365L1476,1365L1476,1373C1468.57,1373 1460,1374.12 1453,1372L1453,1415C1453,1423 1454.78,1430 1445,1430L1445,1388C1445,1384.32 1446.46,1376.42 1443.4,1373.69C1441.69,1372.17 1439,1372.81 1437,1373C1432,1373.16 1426.99,1373 1422,1373L1422,1365ZM1513,1414C1518.88,1421.62 1529.67,1425 1539,1422.21C1544.17,1420.71 1550.49,1416.23 1548.24,1410.02C1546.43,1405 1540.63,1403.12 1536,1401.72C1525.43,1398.53 1510,1397.7 1508.32,1384C1505.68,1363.74 1540.99,1358.52 1551.66,1371.21C1553.95,1374 1553,1378 1548.98,1377.15C1546,1376.65 1543.64,1374.52 1541,1373.48C1534.86,1371.05 1526.37,1371.15 1521,1375.42C1518.84,1377.19 1516.35,1380 1516.97,1383C1517.98,1388 1523.77,1390.28 1528,1391.65C1537,1394.59 1549.51,1395.08 1554.99,1404.02C1561.52,1414.67 1552.53,1426.53 1542,1429.24C1528.41,1432.74 1516.7,1428 1506,1420C1508,1417.17 1509.83,1415.48 1513,1414Z" style="fill:rgb(226,236,239);"/>
    </g>
</svg>
