<?xml version="1.0" encoding="UTF-8" standalone="no"?>
<!DOCTYPE svg PUBLIC "-//W3C//DTD SVG 1.1//EN" "http://www.w3.org/Graphics/SVG/1.1/DTD/svg11.dtd">
<svg width="100%" height="100%" viewBox="0 0 600 600" version="1.1" xmlns="http://www.w3.org/2000/svg" xmlns:xlink="http://www.w3.org/1999/xlink" xml:space="preserve" xmlns:serif="http://www.serif.com/" style="fill-rule:evenodd;clip-rule:evenodd;stroke-linecap:square;stroke-linejoin:round;stroke-miterlimit:1.5;">
    <g id="Border" transform="matrix(1.244761,0,0,1.369187,-80.551069,-101.924963)">
        <ellipse cx="305.722" cy="293.55" rx="238.6" ry="216.917" style="fill:rgb(176,209,226);stroke:black;stroke-width:3.18px;stroke-dasharray:6.369,6.369,0,0,0,0;"/>
    </g>
    <g id="Logo" transform="matrix(0.233333,0,0,0.233333,80.65295,115.197405)">
        <g transform="matrix(2.860552,0,0,2.860552,-2005.209703,-1768.303398)">
            <path d="M771,663C769.751,678.689 765.667,694.265 764.17,710C761.985,733 764.29,757.284 767.579,780C769.721,794.787 772.796,809.751 777.344,824C779.347,830.276 785,839.362 783.486,846C781.773,853.104 776.437,860.396 773.258,867C768.701,876.467 765.563,887 762.884,897C760,907.565 757.864,918.188 756.272,929C755.564,933.804 756,940.599 753.682,945C750.422,951 742,949.376 740.448,943C738.879,936.813 741.814,928.207 742.728,922C745.603,902.493 750.697,883.313 758,865C760.7,858.231 766.44,850.221 767.295,843C767.817,838.587 764.669,833.148 763.344,829C760.633,820.513 758.574,811.728 756.801,803C749,765.033 746.523,726.46 751.87,688C753,679 754.882,670 757,661C758,657.34 758.511,652.418 761,649.434C763.971,646 769,647.25 773,648.12C783,650.396 793,653 803,656.029C835,666.218 865.404,685.115 891,706.589C900,714.158 912.951,723.174 918,734C965.759,718 1014.878,712.316 1065,717.17C1082,718.83 1099.397,722.015 1116,726.576C1121.455,728.075 1132.619,733.826 1138,731.788C1142.998,730 1147.284,723.676 1151,720.004C1157.885,713.201 1165.421,707.013 1173,701.003C1196.734,682.185 1224.183,666 1253,656.333C1262.827,653.045 1272.792,650.268 1283,648.424C1286.612,647.772 1291.4,646.239 1294.606,648.746C1298.895,652.1 1299.73,660.025 1300.789,665C1303.823,679.247 1306,693.474 1307,708C1309.326,738.521 1307,769 1301.196,799C1299.276,808.792 1296.463,818.418 1293.709,828C1292.506,832.185 1289.644,837.627 1290,842C1290.369,846.146 1293.485,850.26 1295,854C1298.423,861.429 1301.555,869.209 1303.856,877C1309,895 1313.92,913.251 1314.964,932C1315.257,937.258 1318.19,946.34 1312.656,949.821C1308.483,952.446 1300.736,951 1296,951C1282.558,951 1267.296,949 1254,951.148C1247.689,952.197 1245,962 1238.999,965C1233.23,968 1224.808,968 1219,965.175C1198.523,955.422 1205,923.183 1228,922.46C1233.701,922.28 1239.478,924.543 1243.56,928.468C1246.283,931.087 1248.255,935.618 1252,936.682C1255.728,937.684 1260.268,937 1264,937C1276.323,937 1288.787,934.733 1301,937C1300.76,925.385 1297.788,913.273 1295,902C1293.98,897.209 1293.271,891.219 1290.297,887.17C1287.347,883.154 1282.668,880.251 1279,877C1269.423,868.242 1259.643,859.776 1250,851.166C1245.611,847.247 1238.952,843.264 1236.179,838C1232.561,831.042 1236,819.55 1236,812C1236,791.664 1235,771.382 1235,751C1226.604,752.536 1217.982,750 1212.558,743C1204,732 1208,714.144 1221,708.533C1227.821,705.572 1236.971,706.497 1242.985,710.8C1246.406,713.247 1248.775,717.593 1253,718.682C1257,719.709 1261.897,719 1266,719L1293,719C1293,705.621 1290.953,692.156 1288.576,679C1287.869,675.089 1287.456,667.457 1284.272,664.694C1281.646,662.415 1276.822,664.773 1274,665.579C1264.852,668.189 1255.828,671.258 1247,674.8C1220.723,685.344 1196.702,701.035 1175,719.081C1167.404,725.397 1159.951,732 1153,739C1149.779,742.261 1146.514,747.393 1141.985,749C1136.643,750.672 1129,746.255 1124,744.72C1111,741 1097.41,736.095 1084,735L1084,784C1084,790.339 1085.782,800 1083.258,805.826C1081.384,810.206 1075.548,813.461 1072,816.414C1063,824 1050.641,831.033 1043.318,840.09C1039.295,845.065 1041,854 1041,860L1041,905C1041,910.471 1039.442,919 1042.178,923.829C1044.805,928.556 1050.95,932 1055,935.275C1065,943.738 1075.537,952 1085,961L1085,884C1071.366,881.362 1066,864.668 1072,853.001C1076.978,843.125 1088.797,839.085 1099,842.61C1102.658,844 1106,846.187 1108.66,849.093C1115.646,857.038 1115.71,869.707 1109,877.826C1105.732,882 1099.579,883.225 1099,889.015C1097.646,904.74 1099,921.207 1099,937C1099,947.61 1097.478,959.511 1099,970C1099.973,975.16 1105.443,977.272 1107.258,982.001C1109.931,989 1108,999.603 1108,1007C1107.995,1019.109 1107.387,1031 1107.896,1043C1108,1047 1107,1051.659 1102.945,1053.242C1093.608,1056.789 1094,1044.483 1094,1039L1094,1003C1094,998.239 1095.276,991.275 1092.397,987.171C1090,984 1086,981.479 1083,979C1076.363,973.187 1069.704,967.523 1063,962C1041.636,944.062 1020.389,926.071 999,908.247L978,890.586C974.292,887.5 969.412,884.41 967.179,880C965,876 966,870.393 966,866L966,838C953.222,835.422 947.64,819.287 952.533,808C956.953,797.805 969.51,792.461 980,796.109C992.537,800.468 998.875,816.266 992.442,828C989.788,833 983.687,835.264 981.589,840.104C978.939,846.218 980,854.515 980,861C980,864.19 979.518,868 980.318,871C981.732,876.489 988.853,880.241 993,883.611C1004.706,893.124 1015.715,904.347 1028,913C1026,906.416 1027,899 1027,892L1027,730C1000.483,730 974.694,734 949,740.374C941.285,742.328 933.564,744.528 926,747C922.481,748.15 917.811,750.376 914,749.052C909.766,747.513 906,742.151 903,739C895.239,731.23 887.503,723.584 879,716.614C855,697.028 828.394,680.562 799,670.667C789.987,667.634 780.535,663.779 771,663ZM968,810.028C958.933,815.304 967.538,830.03 976.891,824.82C986.42,819.512 977.672,804.558 968,810.028ZM1227,936.667C1215.981,939 1219.786,955.467 1230.995,952.681C1241,950.19 1236.843,934.675 1227,936.667ZM1282,860C1279.806,854.731 1274.666,848.675 1274.167,843C1273.723,838 1277,831.723 1278.667,827C1281.852,817.444 1284.415,808 1286.576,798C1291.288,776.544 1293,755 1293,733L1265,733C1261.8,733 1256.432,732.004 1253.699,734.028C1251.712,735.499 1250.701,738.805 1249.789,741C1246.413,749.116 1249,762.156 1249,771L1249,813C1249,818.672 1247.671,826.528 1250.434,831.711C1252.447,835.488 1256.895,838.168 1260,841C1267,847.413 1274.24,854.534 1282,860ZM1041,730L1041,823C1047.824,818.732 1053.746,813.051 1060,808C1063,805.45 1067.771,802.598 1069.397,798.714C1071.726,793.152 1070,784 1070,778L1070,732C1060.316,732 1050.662,730.415 1041,730ZM1226,722.028C1216.836,727.23 1225.672,741.678 1234.891,736.681C1244.39,731.533 1235.58,716.714 1226,722.028ZM1088,855.743C1078.342,859.829 1085.211,875.069 1094.981,871.257C1105.735,867.061 1098.231,851.505 1088,855.743ZM1101,952C1104.387,940.069 1109.439,929.122 1118,920.015C1122.804,915.053 1134.293,910.213 1134.941,903C1136.411,886.604 1135,869.452 1135,853C1135,841.755 1136.63,829.114 1134.852,818.015C1134,813.181 1129.223,811.314 1126.213,808C1120.786,802 1118.793,793.757 1121.221,786C1127.167,767.002 1153.942,765.023 1162.597,783C1166.596,791.305 1165.279,801.259 1158.895,808C1155.778,811.227 1150.523,813.349 1149.318,818.015C1147,826.657 1149,838.081 1149,847L1149,881C1149,888 1148.377,895.183 1150,902C1161.328,897.22 1175.411,899.002 1187,902C1187,884.637 1186.209,867.291 1186,850C1185.943,845 1187.751,836 1184.972,831.375C1180.925,824.789 1173.844,822.622 1172.329,814C1170.933,806.056 1172.826,797.746 1179,792.329C1190.905,782 1211.658,787.011 1215.468,803C1217.209,810.311 1215.621,818.272 1210.671,824C1207.286,828 1201.568,829.344 1201,835.015C1199.442,853.032 1201,872 1201,890C1201,896.382 1202.646,905 1200.944,911C1199.792,915.132 1197.215,919.22 1195.219,923C1188.989,934.8 1180.566,945.145 1169,952.07C1149.651,963.655 1120.481,963.076 1101,952ZM1139,784.746C1129.59,788.462 1135.195,804.635 1144.985,801.091C1155.75,797.194 1149.784,780.524 1139,784.746ZM1192,800.696C1181.989,803.34 1184.386,819.466 1194.999,817.333C1206.246,815.073 1203,797.784 1192,800.696Z" style="fill:rgb(41,38,39);"/>
        </g>
        <g transform="matrix(2.860552,0,0,2.860552,-2005.209703,-1768.303398)">
            <path d="M856,907C886.214,893.607 921.877,897.577 943.535,924C950.487,932.48 954.633,942.669 958,953C936.39,962.579 907.468,964.035 887,951C876.387,944.104 868.43,934.154 862.756,923C860,917.799 857.355,912.704 856,907ZM654,936.468C663,934.76 672,938.542 677.362,946.001C679.384,948.828 680,953.021 682.56,955.411C684.868,957.61 689,958 692,958.627C741.695,971 791.329,983.648 841,996.127C852,999 866.929,1000.588 876.956,1006.28C881.768,1009.01 883.563,1015.771 877.891,1018.806C873.847,1021 868,1018.395 864,1017.374C852.65,1014.536 841.331,1011.542 830,1008.63C785.402,997.165 740.68,986.043 696,975C691.477,973.743 683.664,970.115 679,971.542C675.92,972.53 673.739,976.082 670.985,978C665.347,981.52 656.258,982.364 650,979.772C630,971.525 632.478,940.528 654,936.468ZM656,950.746C645.52,954.736 651.637,970.526 661.956,966.141C671.187,962.218 665.679,947.073 656,950.746ZM1177,1007C1193,1002 1209.72,998.572 1226,994.266C1270.879,982.393 1315.97,971.384 1361,960.127C1365.525,959 1373,958.576 1376.57,955.411C1380,952.308 1380.714,946.593 1384,943.043C1393.526,933.182 1410.188,934 1418.362,945.015C1425.397,954.63 1424.246,968.718 1414.907,976.468C1404.312,985.259 1386.965,982.784 1381,970C1355.496,975.264 1330.183,982.494 1305,989.116C1268.421,998.734 1231.699,1008 1195,1017.127C1188.786,1018.681 1180.996,1019.089 1175.17,1021.588C1170.356,1023.652 1167.209,1028.215 1162,1030.034C1150.348,1034.102 1136.433,1028.045 1132.8,1016C1127.254,997.612 1146.382,980 1163.999,988.403C1171.476,992.014 1175.2,999.24 1177,1007ZM1397,950.746C1386.957,954.707 1393.494,970.498 1403.956,966.258C1413.897,962.229 1406.632,947 1397,950.746ZM1153,1000.759C1142.376,1002.475 1144,1019.184 1154.999,1017.613C1166,1016.013 1163.882,999 1153,1000.759Z" style="fill:rgb(41,38,39);"/>
        </g>
        <g transform="matrix(2.860552,0,0,2.860552,-2005.209703,-1768.303398)">
            <path d="M1029,1093C1019.629,1112.72 995.272,1128.612 973,1125.711C965.942,1124.791 946.85,1120.586 947.362,1111.012C947.593,1106.687 952,1104.116 956,1104.634C963.955,1105.665 970.568,1111 979,1111C993.361,1111 1005.944,1099.723 1014,1089C1016.753,1085.514 1020.248,1081.356 1021.262,1077C1025,1060.33 1006.935,1050.219 998,1039C993.407,1033.226 986.92,1025.348 993.558,1018.533C998,1014 1005,1015 1011,1015C1026.376,1015 1042.724,1013.401 1058,1015.109C1063,1015.683 1067.49,1019.637 1067.706,1025C1067.948,1031.011 1062.709,1037 1058.91,1041C1052.799,1047.597 1041.709,1054.676 1038,1063C1036.375,1067.038 1037.639,1076.087 1039.417,1080C1045.933,1094.336 1064.932,1113 1082,1111.787C1090,1111.287 1097.239,1105 1104.999,1104.618C1109.681,1104.475 1113.429,1109.579 1111.588,1114C1108.77,1120.667 1098.317,1123.19 1092,1125C1069.479,1130.741 1038.287,1115.822 1031,1093L1029,1093ZM781,1018.424C785,1018 792,1016.787 795.852,1019.028C800,1021.523 799.618,1028.305 795.656,1030.822C792.326,1033 786.815,1032.72 783,1033.075C775.323,1033.789 767.704,1034.69 760,1035.039C735.341,1036.159 710.587,1038.789 686,1041.075C677.982,1041.82 670,1043.054 662,1043C658.714,1043 654.924,1043.085 653,1040C650.973,1036.344 652.469,1031.536 656,1030C662.221,1027.038 672.327,1027.342 679,1027.039C701.352,1026.025 723.725,1023.291 746,1021.171C757.655,1020.061 769.37,1020 781,1018.424ZM1263,1018.742C1271.175,1015.273 1284.467,1019.573 1293,1020C1321.691,1021.263 1350.395,1024.415 1379,1027.075C1385.969,1027.723 1396.688,1026.651 1402.891,1030.178C1406.872,1032.442 1407.897,1038.054 1404.347,1041.258C1401.912,1043.455 1398,1043 1395,1043C1386,1043.001 1376.798,1041.731 1368,1040.576C1343,1037.313 1317.93,1036.582 1293,1034.17C1283.828,1033.282 1272.825,1034.33 1264,1031.348C1258.441,1029.445 1257.227,1021.272 1263,1018.742ZM1280,1075C1267,1073.104 1255,1064.474 1242.286,1063.319C1239,1063.03 1236.608,1065.567 1233.999,1067.046C1230.87,1068.82 1227.593,1069.801 1224,1070C1206.265,1070.742 1192.757,1050.408 1203.649,1035.004C1217.209,1015.825 1244.533,1027.063 1245,1049C1254.386,1049.825 1264,1054.688 1273,1057.667L1337,1079C1346.531,1082.177 1357,1088 1367,1089.107C1374.202,1090.02 1380.276,1082.664 1388,1083.329C1399,1084.282 1408,1092.739 1408.903,1104C1410.227,1123.227 1387.348,1135.445 1372,1123.442C1365.72,1118.484 1364,1110.6 1364,1103C1352.854,1101.354 1341.678,1096.226 1331,1092.667C1319.188,1088.729 1306,1085.808 1295,1080C1278.461,1119.725 1239.359,1149.6 1203,1170.281C1105.89,1225.517 981.393,1229.014 880,1183.306C846.204,1168.07 816,1147.282 790,1121C779.712,1110.662 766.203,1096.285 762,1082C748.252,1087.303 734,1091.603 720,1096C712.733,1098.233 703.723,1099.64 697,1103.558C693,1106 694.223,1111.131 692.647,1115C689.457,1122.833 683.228,1127.09 675,1128.37C650.49,1132.18 640.562,1097 662,1086C668,1083 674.589,1082.636 681,1085.14C685,1086.746 688.271,1090.454 693,1089.427C705.345,1086.747 717.985,1081.338 730,1077.333C752.503,1069.832 775.219,1062.467 798,1056C800.55,1055.119 803.53,1054.485 805.437,1052.49C808.361,1049.431 808.681,1044.411 811.394,1041.015C816.553,1034.556 824,1032.438 832,1033.093C858.716,1035.284 855.783,1076.135 830,1078C825,1078.244 819.971,1076.571 816,1073.583C813.766,1072 811.67,1068.751 808.714,1068.363C805.698,1068 801.86,1070.035 799,1071C791.282,1073.081 783.729,1075.807 776,1078C810.672,1129.394 864.197,1167.03 924,1184C924,1178.589 925.985,1169.046 923.802,1164.17C922,1160.317 917,1157.423 914,1154.714C907.852,1149.312 901.914,1143.692 896,1138.039C893.265,1135.425 889.707,1133.147 887.603,1130C885.337,1126.527 886,1122 886,1118C886,1109.519 887.955,1098.282 885.682,1090.105C884.674,1086.479 880.802,1085.318 878,1083.211C873.944,1080 870.849,1075.254 870.185,1070C868.92,1060 872.876,1050.381 882,1045.417C894,1039 911.211,1046.256 913.671,1060C914.987,1067.357 913.738,1075.228 908.671,1081C906.374,1083.48 902.75,1085.151 901,1088.184C899.57,1090.752 900,1094.166 900,1097C899.997,1103.677 897.676,1115.804 901,1121.714C903.206,1125.555 907.746,1128.417 911,1131.286C917.455,1137 923.905,1143 930,1149.001C932.736,1151.728 936,1154.49 937.821,1158C940.42,1163.197 939.377,1172.364 938.714,1178C938.317,1181.386 937,1185.618 940.318,1188.062C946,1192.456 958,1192.607 965,1194C988.991,1198.797 1013.581,1200.287 1038,1200C1045.243,1200 1052.808,1199.149 1060,1198.286C1062.416,1198 1065.567,1198.385 1067.682,1197C1070.516,1195.08 1069.994,1191 1070,1188C1070,1179.288 1068.885,1170.729 1069,1162C1069,1157 1070.489,1150.241 1077,1150.558C1082.786,1151 1083.931,1156.301 1083.996,1161C1084,1172.662 1084,1184.337 1084,1196C1091.587,1194.131 1099.379,1193.099 1107,1191.349C1109.884,1190.687 1114.168,1190.235 1115.972,1187.57C1117.685,1185.042 1117,1181 1117,1178C1117,1170.144 1114.435,1156.725 1119.514,1150.17C1125.46,1142.495 1134.973,1136.694 1142,1130C1146.407,1125.738 1149.876,1122.336 1149.995,1116C1150,1111 1149.438,1106.052 1149,1101C1148.918,1098.507 1149.418,1095.565 1148.397,1093.213C1146.849,1089.647 1141.973,1088 1139.532,1085C1133,1077 1132.658,1065.296 1138.638,1057.004C1149.9,1041.387 1174.317,1048 1178.471,1066C1180,1073 1177.787,1080.785 1172.812,1085.815C1170,1088.544 1165.415,1090.143 1164.318,1094.104C1162.287,1101.437 1164,1111.402 1164,1119C1164,1122.245 1164.471,1126.003 1162.972,1129C1158.76,1137.424 1147.989,1144.615 1141,1150.714C1138.364,1153.015 1134.796,1155.184 1133,1158.286C1131.576,1160.833 1132,1164.185 1132,1167L1132,1185C1144.711,1180.097 1157.556,1176 1170,1170.306C1174.723,1168.176 1181.883,1166.349 1185.397,1162.363C1188.952,1158.33 1187,1148.056 1187,1143C1187,1137.159 1186.28,1130.774 1187.224,1125C1187.676,1122.232 1189.296,1119.799 1189.556,1117C1190,1110.773 1188.675,1106 1191.916,1100.004C1198.862,1087.264 1218,1085 1227.61,1096.093C1242.715,1113.806 1223.473,1141.511 1202,1131L1201,1154C1223.468,1142.039 1244.175,1124 1260.95,1105C1268.514,1096.464 1277,1086.284 1280,1075ZM890,1057.613C879.209,1060.207 883.492,1076.011 893.995,1073.667C904.531,1071.315 900.486,1055.094 890,1057.613ZM668,1099.028C659.182,1104 666.899,1118.46 675.891,1113.539C684.861,1108.631 677.449,1094 668,1099.028ZM1208,1103.743C1198.493,1107.478 1204.19,1123 1213.956,1119C1223.43,1115.185 1218,1099.825 1208,1103.743ZM1153,1062.743C1143.248,1066.738 1149.758,1082.356 1159.956,1078.257C1169.973,1074.231 1163.283,1058.576 1153,1062.743ZM1219,1039.743C1209,1043.773 1215.71,1059.375 1225.956,1055.257C1235.984,1051.227 1229.29,1035.625 1219,1039.743ZM825,1047.742C816.233,1051.539 822.489,1066 831.981,1062.396C842,1058.574 835,1043.488 825,1047.742ZM1384,1097.758C1373.976,1101.392 1378.779,1117.682 1388.985,1114C1399,1110.248 1394,1094.092 1384,1097.758Z" style="fill:rgb(41,38,39);"/>
        </g>
    </g>
    <g id="Bottom-Text" serif:id="Bottom Text" transform="matrix(1,0,0,1,-248.593645,-59.471943)">
        <g transform="matrix(0.840936,0.541134,-0.541134,0.840936,378.596578,-117.859287)">
            <text x="389.777px" y="585.062px" style="font-family:'EurostileExt-Reg', 'Eurostile Extd';font-size:54.167px;stroke:black;stroke-width:1.25px;stroke-linecap:butt;stroke-miterlimit:2;">E</text>
        </g>
        <g transform="matrix(0.915757,0.401734,-0.401734,0.915757,280.702455,-120.403271)">
            <text x="427.436px" y="609.095px" style="font-family:'EurostileExt-Reg', 'Eurostile Extd';font-size:54.167px;stroke:black;stroke-width:1.25px;stroke-linecap:butt;stroke-miterlimit:2;">s</text>
        </g>
        <g transform="matrix(0.961355,0.275311,-0.275311,0.961355,189.950039,-103.695022)">
            <text x="464.344px" y="624.768px" style="font-family:'EurostileExt-Reg', 'Eurostile Extd';font-size:54.167px;stroke:black;stroke-width:1.25px;stroke-linecap:butt;stroke-miterlimit:2;">t</text>
        </g>
        <g transform="matrix(0.983259,0.182215,-0.182215,0.983259,123.559346,-79.370421)">
            <text x="493.72px" y="632.734px" style="font-family:'EurostileExt-Reg', 'Eurostile Extd';font-size:54.167px;stroke:black;stroke-width:1.25px;stroke-linecap:butt;stroke-miterlimit:2;">.</text>
        </g>
        <g transform="matrix(0.999989,0.004757,-0.004757,0.999989,3.042502,-2.478246)">
            <text x="522.494px" y="638.351px" style="font-family:'EurostileExt-Reg', 'Eurostile Extd';font-size:54.167px;stroke:black;stroke-width:1.25px;stroke-linecap:butt;stroke-miterlimit:2;">2</text>
        </g>
        <g transform="matrix(0.983187,-0.182601,0.182601,0.983187,-106.999113,115.143289)">
            <text x="571.772px" y="638.618px" style="font-family:'EurostileExt-Reg', 'Eurostile Extd';font-size:54.167px;stroke:black;stroke-width:1.25px;stroke-linecap:butt;stroke-miterlimit:2;">0</text>
        </g>
        <g transform="matrix(0.929909,-0.367789,0.367789,0.929909,-188.098849,272.24593)">
            <text x="620.232px" y="629.631px" style="font-family:'EurostileExt-Reg', 'Eurostile Extd';font-size:54.167px;stroke:black;stroke-width:1.25px;stroke-linecap:butt;stroke-miterlimit:2;">2</text>
        </g>
        <g transform="matrix(0.843167,-0.537652,0.537652,0.843167,-224.342692,454.015789)">
            <text x="666.052px" y="611.551px" style="font-family:'EurostileExt-Reg', 'Eurostile Extd';font-size:54.167px;stroke:black;stroke-width:1.25px;stroke-linecap:butt;stroke-miterlimit:2;">5</text>
        </g>
    </g>
    <g id="Top-Text" serif:id="Top Text" transform="matrix(1,0,0,1,-132.77268,-37.540714)">
        <g transform="matrix(0.664313,-0.747454,0.747454,0.664313,-73.122172,232.735006)">
            <text x="222.548px" y="197.776px" style="font-family:'EurostileExt-Reg', 'Eurostile Extd';font-size:58.333px;stroke:black;stroke-width:2.5px;stroke-linecap:butt;stroke-miterlimit:2;">S</text>
        </g>
        <g transform="matrix(0.776883,-0.629645,0.629645,0.776883,-41.882575,198.42044)">
            <text x="259.034px" y="158.307px" style="font-family:'EurostileExt-Reg', 'Eurostile Extd';font-size:58.333px;stroke:black;stroke-width:2.5px;stroke-linecap:butt;stroke-miterlimit:2;">t</text>
        </g>
        <g transform="matrix(0.858204,-0.513309,0.513309,0.858204,-30.437812,165.406002)">
            <text x="284.17px" y="137.796px" style="font-family:'EurostileExt-Reg', 'Eurostile Extd';font-size:58.333px;stroke:black;stroke-width:2.5px;stroke-linecap:butt;stroke-miterlimit:2;">r</text>
        </g>
        <g transform="matrix(0.922686,-0.385552,0.385552,0.922686,-21.623341,130.565786)">
            <text x="314.743px" y="119.199px" style="font-family:'EurostileExt-Reg', 'Eurostile Extd';font-size:58.333px;stroke:black;stroke-width:2.5px;stroke-linecap:butt;stroke-miterlimit:2;">a</text>
        </g>
        <g transform="matrix(0.969936,-0.243362,0.243362,0.969936,-14.501602,89.215188)">
            <text x="353.833px" y="103.3px" style="font-family:'EurostileExt-Reg', 'Eurostile Extd';font-size:58.333px;stroke:black;stroke-width:2.5px;stroke-linecap:butt;stroke-miterlimit:2;">y</text>
        </g>
        <g transform="matrix(0.999826,-0.018628,0.018628,0.999826,-1.646179,7.474488)">
            <text x="400.382px" y="92.099px" style="font-family:'EurostileExt-Reg', 'Eurostile Extd';font-size:58.333px;stroke:black;stroke-width:2.5px;stroke-linecap:butt;stroke-miterlimit:2;">C</text>
        </g>
        <g transform="matrix(0.993779,0.111372,-0.111372,0.993779,13.122461,-50.107931)">
            <text x="455.078px" y="92.405px" style="font-family:'EurostileExt-Reg', 'Eurostile Extd';font-size:58.333px;stroke:black;stroke-width:2.5px;stroke-linecap:butt;stroke-miterlimit:2;">i</text>
        </g>
        <g transform="matrix(0.977562,0.210647,-0.210647,0.977562,30.164026,-96.60811)">
            <text x="468.562px" y="93.286px" style="font-family:'EurostileExt-Reg', 'Eurostile Extd';font-size:58.333px;stroke:black;stroke-width:2.5px;stroke-linecap:butt;stroke-miterlimit:2;">r</text>
        </g>
        <g transform="matrix(0.935453,0.353451,-0.353451,0.935453,68.091492,-171.648839)">
            <text x="504.01px" y="100.606px" style="font-family:'EurostileExt-Reg', 'Eurostile Extd';font-size:58.333px;stroke:black;stroke-width:2.5px;stroke-linecap:butt;stroke-miterlimit:2;">c</text>
        </g>
        <g transform="matrix(0.866042,0.499972,-0.499972,0.866042,130.399888,-256.075854)">
            <text x="543.075px" y="115.307px" style="font-family:'EurostileExt-Reg', 'Eurostile Extd';font-size:58.333px;stroke:black;stroke-width:2.5px;stroke-linecap:butt;stroke-miterlimit:2;">u</text>
        </g>
        <g transform="matrix(0.806977,0.590583,-0.590583,0.806977,192.898862,-315.741364)">
            <text x="579.478px" y="137.231px" style="font-family:'EurostileExt-Reg', 'Eurostile Extd';font-size:58.333px;stroke:black;stroke-width:2.5px;stroke-linecap:butt;stroke-miterlimit:2;">i</text>
        </g>
        <g transform="matrix(0.755321,0.655355,-0.655355,0.755321,239.489771,-351.572109)">
            <text x="590.575px" y="144.942px" style="font-family:'EurostileExt-Reg', 'Eurostile Extd';font-size:58.333px;stroke:black;stroke-width:2.5px;stroke-linecap:butt;stroke-miterlimit:2;">t</text>
        </g>
        <g transform="matrix(0.649141,0.760668,-0.760668,0.649141,342.52687,-409.874295)">
            <text x="615.57px" y="166.365px" style="font-family:'EurostileExt-Reg', 'Eurostile Extd';font-size:58.333px;stroke:black;stroke-width:2.5px;stroke-linecap:butt;stroke-miterlimit:2;">s</text>
        </g>
    </g>
</svg>
